solid OpenSCAD_Model
  facet normal -0 0 1
    outer loop
      vertex 4 20 4
      vertex 8 12 4
      vertex 8 20 4
    endloop
  endfacet
  facet normal 0 0 1
    outer loop
      vertex 4 8 4
      vertex 8 12 4
      vertex 4 20 4
    endloop
  endfacet
  facet normal 0 0 1
    outer loop
      vertex 8 12 4
      vertex 4 8 4
      vertex 8 8 4
    endloop
  endfacet
  facet normal 0 0 1
    outer loop
      vertex 28 28 4
      vertex 24 12 4
      vertex 28 0 4
    endloop
  endfacet
  facet normal 0 0 1
    outer loop
      vertex 28 28 4
      vertex 20 20 4
      vertex 24 12 4
    endloop
  endfacet
  facet normal -0 0 1
    outer loop
      vertex 12 24 4
      vertex 20 20 4
      vertex 28 28 4
    endloop
  endfacet
  facet normal 0 0 1
    outer loop
      vertex 12 12 4
      vertex 16 16 4
      vertex 16 20 4
    endloop
  endfacet
  facet normal 0 0 1
    outer loop
      vertex 16 16 4
      vertex 12 12 4
      vertex 16 12 4
    endloop
  endfacet
  facet normal 0 0 1
    outer loop
      vertex 12 12 4
      vertex 16 20 4
      vertex 12 24 4
    endloop
  endfacet
  facet normal 0 0 1
    outer loop
      vertex 20 20 4
      vertex 12 24 4
      vertex 16 20 4
    endloop
  endfacet
  facet normal -0 0 1
    outer loop
      vertex 0 28 4
      vertex 12 24 4
      vertex 28 28 4
    endloop
  endfacet
  facet normal 0 0 1
    outer loop
      vertex 0 28 4
      vertex 4 20 4
      vertex 4 24 4
    endloop
  endfacet
  facet normal 0 0 1
    outer loop
      vertex 4 20 4
      vertex 0 28 4
      vertex 4 8 4
    endloop
  endfacet
  facet normal 0 0 1
    outer loop
      vertex 0 0 4
      vertex 4 8 4
      vertex 0 28 4
    endloop
  endfacet
  facet normal 0 0 1
    outer loop
      vertex 12 24 4
      vertex 0 28 4
      vertex 4 24 4
    endloop
  endfacet
  facet normal -0 0 1
    outer loop
      vertex 24 8 4
      vertex 28 0 4
      vertex 24 12 4
    endloop
  endfacet
  facet normal 0 0 1
    outer loop
      vertex 16 4 4
      vertex 24 8 4
      vertex 16 8 4
    endloop
  endfacet
  facet normal 0 0 1
    outer loop
      vertex 24 8 4
      vertex 16 4 4
      vertex 28 0 4
    endloop
  endfacet
  facet normal -0 0 1
    outer loop
      vertex 12 4 4
      vertex 28 0 4
      vertex 16 4 4
    endloop
  endfacet
  facet normal 0 0 1
    outer loop
      vertex 12 8 4
      vertex 8 8 4
      vertex 12 4 4
    endloop
  endfacet
  facet normal 0 0 1
    outer loop
      vertex 8 4 4
      vertex 12 4 4
      vertex 8 8 4
    endloop
  endfacet
  facet normal 0 0 1
    outer loop
      vertex 0 0 4
      vertex 12 4 4
      vertex 8 4 4
    endloop
  endfacet
  facet normal 0 0 1
    outer loop
      vertex 0 0 4
      vertex 8 4 4
      vertex 4 4 4
    endloop
  endfacet
  facet normal 0 0 1
    outer loop
      vertex 12 4 4
      vertex 0 0 4
      vertex 28 0 4
    endloop
  endfacet
  facet normal 0 0 1
    outer loop
      vertex 4 8 4
      vertex 0 0 4
      vertex 4 4 4
    endloop
  endfacet
  facet normal -0 0 1
    outer loop
      vertex 20 16 4
      vertex 24 12 4
      vertex 20 20 4
    endloop
  endfacet
  facet normal 0 0 1
    outer loop
      vertex 16 12 4
      vertex 20 16 4
      vertex 16 16 4
    endloop
  endfacet
  facet normal 0 0 1
    outer loop
      vertex 20 16 4
      vertex 16 12 4
      vertex 24 12 4
    endloop
  endfacet
  facet normal 0 0 1
    outer loop
      vertex 16 12 4
      vertex 12 12 4
      vertex 16 8 4
    endloop
  endfacet
  facet normal 0 0 1
    outer loop
      vertex 12 12 4
      vertex 12 8 4
      vertex 16 8 4
    endloop
  endfacet
  facet normal -0 0 1
    outer loop
      vertex 8 12 4
      vertex 12 8 4
      vertex 12 12 4
    endloop
  endfacet
  facet normal 0 0 1
    outer loop
      vertex 8 8 4
      vertex 12 8 4
      vertex 8 12 4
    endloop
  endfacet
  facet normal 0 0 -1
    outer loop
      vertex 12 8 0
      vertex 8 8 0
      vertex 12 12 0
    endloop
  endfacet
  facet normal 0 0 -1
    outer loop
      vertex 8 8 0
      vertex 8 12 0
      vertex 12 12 0
    endloop
  endfacet
  facet normal 0 0 -1
    outer loop
      vertex 4 8 0
      vertex 8 12 0
      vertex 8 8 0
    endloop
  endfacet
  facet normal 0 0 -1
    outer loop
      vertex 4 20 0
      vertex 8 12 0
      vertex 4 8 0
    endloop
  endfacet
  facet normal 0 0 -1
    outer loop
      vertex 8 12 0
      vertex 4 20 0
      vertex 8 20 0
    endloop
  endfacet
  facet normal 0 0 -1
    outer loop
      vertex 16 12 0
      vertex 20 16 0
      vertex 24 12 0
    endloop
  endfacet
  facet normal -0 0 -1
    outer loop
      vertex 20 16 0
      vertex 16 12 0
      vertex 16 16 0
    endloop
  endfacet
  facet normal 0 0 -1
    outer loop
      vertex 24 12 0
      vertex 28 0 0
      vertex 24 8 0
    endloop
  endfacet
  facet normal 0 0 -1
    outer loop
      vertex 28 0 0
      vertex 16 4 0
      vertex 24 8 0
    endloop
  endfacet
  facet normal 0 0 -1
    outer loop
      vertex 28 0 0
      vertex 12 4 0
      vertex 16 4 0
    endloop
  endfacet
  facet normal 0 0 -1
    outer loop
      vertex 8 4 0
      vertex 12 8 0
      vertex 12 4 0
    endloop
  endfacet
  facet normal 0 0 -1
    outer loop
      vertex 8 8 0
      vertex 12 8 0
      vertex 8 4 0
    endloop
  endfacet
  facet normal 0 0 -1
    outer loop
      vertex 0 0 0
      vertex 12 4 0
      vertex 28 0 0
    endloop
  endfacet
  facet normal -0 0 -1
    outer loop
      vertex 12 4 0
      vertex 0 0 0
      vertex 8 4 0
    endloop
  endfacet
  facet normal 0 0 -1
    outer loop
      vertex 0 0 0
      vertex 4 8 0
      vertex 4 4 0
    endloop
  endfacet
  facet normal -0 0 -1
    outer loop
      vertex 4 8 0
      vertex 0 0 0
      vertex 4 20 0
    endloop
  endfacet
  facet normal 0 0 -1
    outer loop
      vertex 0 28 0
      vertex 4 20 0
      vertex 0 0 0
    endloop
  endfacet
  facet normal -0 0 -1
    outer loop
      vertex 8 4 0
      vertex 0 0 0
      vertex 4 4 0
    endloop
  endfacet
  facet normal 0 0 -1
    outer loop
      vertex 28 0 0
      vertex 24 12 0
      vertex 28 28 0
    endloop
  endfacet
  facet normal 0 0 -1
    outer loop
      vertex 20 20 0
      vertex 24 12 0
      vertex 20 16 0
    endloop
  endfacet
  facet normal 0 0 -1
    outer loop
      vertex 24 12 0
      vertex 20 20 0
      vertex 28 28 0
    endloop
  endfacet
  facet normal 0 0 -1
    outer loop
      vertex 12 24 0
      vertex 20 20 0
      vertex 16 20 0
    endloop
  endfacet
  facet normal -0 0 -1
    outer loop
      vertex 16 16 0
      vertex 12 12 0
      vertex 16 20 0
    endloop
  endfacet
  facet normal 0 0 -1
    outer loop
      vertex 12 24 0
      vertex 16 20 0
      vertex 12 12 0
    endloop
  endfacet
  facet normal 0 0 -1
    outer loop
      vertex 20 20 0
      vertex 12 24 0
      vertex 28 28 0
    endloop
  endfacet
  facet normal 0 0 -1
    outer loop
      vertex 0 28 0
      vertex 12 24 0
      vertex 4 24 0
    endloop
  endfacet
  facet normal 0 0 -1
    outer loop
      vertex 12 24 0
      vertex 0 28 0
      vertex 28 28 0
    endloop
  endfacet
  facet normal 0 0 -1
    outer loop
      vertex 4 20 0
      vertex 0 28 0
      vertex 4 24 0
    endloop
  endfacet
  facet normal -0 0 -1
    outer loop
      vertex 24 8 0
      vertex 16 4 0
      vertex 16 8 0
    endloop
  endfacet
  facet normal 0 0 -1
    outer loop
      vertex 12 8 0
      vertex 16 12 0
      vertex 16 8 0
    endloop
  endfacet
  facet normal 0 0 -1
    outer loop
      vertex 12 12 0
      vertex 16 12 0
      vertex 12 8 0
    endloop
  endfacet
  facet normal 0 0 -1
    outer loop
      vertex 16 12 0
      vertex 12 12 0
      vertex 16 16 0
    endloop
  endfacet
  facet normal -1 0 0
    outer loop
      vertex 0 0 0
      vertex 0 28 4
      vertex 0 28 0
    endloop
  endfacet
  facet normal -1 -0 0
    outer loop
      vertex 0 28 4
      vertex 0 0 0
      vertex 0 0 4
    endloop
  endfacet
  facet normal 0 1 -0
    outer loop
      vertex 8 4 0
      vertex 4 4 4
      vertex 8 4 4
    endloop
  endfacet
  facet normal 0 1 0
    outer loop
      vertex 4 4 4
      vertex 8 4 0
      vertex 4 4 0
    endloop
  endfacet
  facet normal 0 -1 0
    outer loop
      vertex 0 0 0
      vertex 28 0 4
      vertex 0 0 4
    endloop
  endfacet
  facet normal 0 -1 -0
    outer loop
      vertex 28 0 4
      vertex 0 0 0
      vertex 28 0 0
    endloop
  endfacet
  facet normal 0 1 -0
    outer loop
      vertex 16 4 0
      vertex 12 4 4
      vertex 16 4 4
    endloop
  endfacet
  facet normal 0 1 0
    outer loop
      vertex 12 4 4
      vertex 16 4 0
      vertex 12 4 0
    endloop
  endfacet
  facet normal 1 -0 0
    outer loop
      vertex 28 0 4
      vertex 28 28 0
      vertex 28 28 4
    endloop
  endfacet
  facet normal 1 0 0
    outer loop
      vertex 28 28 0
      vertex 28 0 4
      vertex 28 0 0
    endloop
  endfacet
  facet normal 1 -0 0
    outer loop
      vertex 4 4 4
      vertex 4 8 0
      vertex 4 8 4
    endloop
  endfacet
  facet normal 1 0 0
    outer loop
      vertex 4 8 0
      vertex 4 4 4
      vertex 4 4 0
    endloop
  endfacet
  facet normal 1 -0 0
    outer loop
      vertex 12 4 4
      vertex 12 8 0
      vertex 12 8 4
    endloop
  endfacet
  facet normal 1 0 0
    outer loop
      vertex 12 8 0
      vertex 12 4 4
      vertex 12 4 0
    endloop
  endfacet
  facet normal -1 0 0
    outer loop
      vertex 8 4 0
      vertex 8 8 4
      vertex 8 8 0
    endloop
  endfacet
  facet normal -1 -0 0
    outer loop
      vertex 8 8 4
      vertex 8 4 0
      vertex 8 4 4
    endloop
  endfacet
  facet normal -1 0 0
    outer loop
      vertex 16 4 0
      vertex 16 8 4
      vertex 16 8 0
    endloop
  endfacet
  facet normal -1 -0 0
    outer loop
      vertex 16 8 4
      vertex 16 4 0
      vertex 16 4 4
    endloop
  endfacet
  facet normal 0 1 -0
    outer loop
      vertex 24 8 0
      vertex 16 8 4
      vertex 24 8 4
    endloop
  endfacet
  facet normal 0 1 0
    outer loop
      vertex 16 8 4
      vertex 24 8 0
      vertex 16 8 0
    endloop
  endfacet
  facet normal 0 -1 0
    outer loop
      vertex 4 8 0
      vertex 8 8 4
      vertex 4 8 4
    endloop
  endfacet
  facet normal 0 -1 -0
    outer loop
      vertex 8 8 4
      vertex 4 8 0
      vertex 8 8 0
    endloop
  endfacet
  facet normal 0 -1 0
    outer loop
      vertex 16 12 0
      vertex 24 12 4
      vertex 16 12 4
    endloop
  endfacet
  facet normal 0 -1 -0
    outer loop
      vertex 24 12 4
      vertex 16 12 0
      vertex 24 12 0
    endloop
  endfacet
  facet normal 0 1 -0
    outer loop
      vertex 12 12 0
      vertex 8 12 4
      vertex 12 12 4
    endloop
  endfacet
  facet normal 0 1 0
    outer loop
      vertex 8 12 4
      vertex 12 12 0
      vertex 8 12 0
    endloop
  endfacet
  facet normal 1 -0 0
    outer loop
      vertex 16 8 4
      vertex 16 12 0
      vertex 16 12 4
    endloop
  endfacet
  facet normal 1 0 0
    outer loop
      vertex 16 12 0
      vertex 16 8 4
      vertex 16 8 0
    endloop
  endfacet
  facet normal 0 -1 0
    outer loop
      vertex 12 8 0
      vertex 16 8 4
      vertex 12 8 4
    endloop
  endfacet
  facet normal 0 -1 -0
    outer loop
      vertex 16 8 4
      vertex 12 8 0
      vertex 16 8 0
    endloop
  endfacet
  facet normal -1 0 0
    outer loop
      vertex 24 8 0
      vertex 24 12 4
      vertex 24 12 0
    endloop
  endfacet
  facet normal -1 -0 0
    outer loop
      vertex 24 12 4
      vertex 24 8 0
      vertex 24 8 4
    endloop
  endfacet
  facet normal 1 -0 0
    outer loop
      vertex 8 12 4
      vertex 8 20 0
      vertex 8 20 4
    endloop
  endfacet
  facet normal 1 0 0
    outer loop
      vertex 8 20 0
      vertex 8 12 4
      vertex 8 12 0
    endloop
  endfacet
  facet normal -1 0 0
    outer loop
      vertex 12 12 0
      vertex 12 24 4
      vertex 12 24 0
    endloop
  endfacet
  facet normal -1 -0 0
    outer loop
      vertex 12 24 4
      vertex 12 12 0
      vertex 12 12 4
    endloop
  endfacet
  facet normal 0 1 -0
    outer loop
      vertex 20 16 0
      vertex 16 16 4
      vertex 20 16 4
    endloop
  endfacet
  facet normal 0 1 0
    outer loop
      vertex 16 16 4
      vertex 20 16 0
      vertex 16 16 0
    endloop
  endfacet
  facet normal -1 0 0
    outer loop
      vertex 20 16 0
      vertex 20 20 4
      vertex 20 20 0
    endloop
  endfacet
  facet normal -1 -0 0
    outer loop
      vertex 20 20 4
      vertex 20 16 0
      vertex 20 16 4
    endloop
  endfacet
  facet normal 0 1 -0
    outer loop
      vertex 8 20 0
      vertex 4 20 4
      vertex 8 20 4
    endloop
  endfacet
  facet normal 0 1 0
    outer loop
      vertex 4 20 4
      vertex 8 20 0
      vertex 4 20 0
    endloop
  endfacet
  facet normal 1 -0 0
    outer loop
      vertex 16 16 4
      vertex 16 20 0
      vertex 16 20 4
    endloop
  endfacet
  facet normal 1 0 0
    outer loop
      vertex 16 20 0
      vertex 16 16 4
      vertex 16 16 0
    endloop
  endfacet
  facet normal 0 -1 0
    outer loop
      vertex 16 20 0
      vertex 20 20 4
      vertex 16 20 4
    endloop
  endfacet
  facet normal 0 -1 -0
    outer loop
      vertex 20 20 4
      vertex 16 20 0
      vertex 20 20 0
    endloop
  endfacet
  facet normal 1 -0 0
    outer loop
      vertex 4 20 4
      vertex 4 24 0
      vertex 4 24 4
    endloop
  endfacet
  facet normal 1 0 0
    outer loop
      vertex 4 24 0
      vertex 4 20 4
      vertex 4 20 0
    endloop
  endfacet
  facet normal 0 1 -0
    outer loop
      vertex 28 28 0
      vertex 0 28 4
      vertex 28 28 4
    endloop
  endfacet
  facet normal 0 1 0
    outer loop
      vertex 0 28 4
      vertex 28 28 0
      vertex 0 28 0
    endloop
  endfacet
  facet normal 0 -1 0
    outer loop
      vertex 4 24 0
      vertex 12 24 4
      vertex 4 24 4
    endloop
  endfacet
  facet normal 0 -1 -0
    outer loop
      vertex 12 24 4
      vertex 4 24 0
      vertex 12 24 0
    endloop
  endfacet
endsolid OpenSCAD_Model
