solid OpenSCAD_Model
  facet normal 0.866022 0.500007 0
    outer loop
      vertex 5.16831 -13.1189 10
      vertex 4.21324 -11.4647 0
      vertex 4.21324 -11.4647 10
    endloop
  endfacet
  facet normal 0.866022 0.500007 0
    outer loop
      vertex 4.21324 -11.4647 0
      vertex 5.16831 -13.1189 10
      vertex 5.16831 -13.1189 0
    endloop
  endfacet
  facet normal 0.984808 0.173649 0
    outer loop
      vertex 5.5 -15 10
      vertex 5.16831 -13.1189 0
      vertex 5.16831 -13.1189 10
    endloop
  endfacet
  facet normal 0.984808 0.173649 0
    outer loop
      vertex 5.16831 -13.1189 0
      vertex 5.5 -15 10
      vertex 5.5 -15 0
    endloop
  endfacet
  facet normal 0.642786 0.766046 -0
    outer loop
      vertex 4.21324 -11.4647 0
      vertex 2.75 -10.2369 10
      vertex 4.21324 -11.4647 10
    endloop
  endfacet
  facet normal 0.642786 0.766046 0
    outer loop
      vertex 2.75 -10.2369 10
      vertex 4.21324 -11.4647 0
      vertex 2.75 -10.2369 0
    endloop
  endfacet
  facet normal -0.984808 0.173649 0
    outer loop
      vertex -5.5 -15 0
      vertex -5.16831 -13.1189 10
      vertex -5.16831 -13.1189 0
    endloop
  endfacet
  facet normal -0.984808 0.173649 0
    outer loop
      vertex -5.16831 -13.1189 10
      vertex -5.5 -15 0
      vertex -5.5 -15 10
    endloop
  endfacet
  facet normal -0.642786 0.766046 0
    outer loop
      vertex -2.75 -10.2369 0
      vertex -4.21324 -11.4647 10
      vertex -2.75 -10.2369 10
    endloop
  endfacet
  facet normal -0.642786 0.766046 0
    outer loop
      vertex -4.21324 -11.4647 10
      vertex -2.75 -10.2369 0
      vertex -4.21324 -11.4647 0
    endloop
  endfacet
  facet normal -0.34199 -0.939704 0
    outer loop
      vertex -2.09923 -20 0
      vertex -0.955065 -20.4164 10
      vertex -2.09923 -20 10
    endloop
  endfacet
  facet normal -0.34199 -0.939704 -0
    outer loop
      vertex -0.955065 -20.4164 10
      vertex -2.09923 -20 0
      vertex -0.955065 -20.4164 0
    endloop
  endfacet
  facet normal -0.342045 -0.939684 0
    outer loop
      vertex -2.75 -19.7631 0
      vertex -2.5 -19.8541 10
      vertex -2.75 -19.7631 10
    endloop
  endfacet
  facet normal -0.342045 -0.939684 -0
    outer loop
      vertex -2.5 -19.8541 10
      vertex -2.75 -19.7631 0
      vertex -2.5 -19.8541 0
    endloop
  endfacet
  facet normal 0.342045 0.939684 -0
    outer loop
      vertex 2.75 -10.2369 0
      vertex 2.5 -10.1459 10
      vertex 2.75 -10.2369 10
    endloop
  endfacet
  facet normal 0.342045 0.939684 0
    outer loop
      vertex 2.5 -10.1459 10
      vertex 2.75 -10.2369 0
      vertex 2.5 -10.1459 0
    endloop
  endfacet
  facet normal 0.984808 -0.173649 0
    outer loop
      vertex 5.16831 -16.8811 10
      vertex 5.5 -15 0
      vertex 5.5 -15 10
    endloop
  endfacet
  facet normal 0.984808 -0.173649 0
    outer loop
      vertex 5.5 -15 0
      vertex 5.16831 -16.8811 10
      vertex 5.16831 -16.8811 0
    endloop
  endfacet
  facet normal -0.984808 -0.173649 0
    outer loop
      vertex -5.16831 -16.8811 0
      vertex -5.5 -15 10
      vertex -5.5 -15 0
    endloop
  endfacet
  facet normal -0.984808 -0.173649 0
    outer loop
      vertex -5.5 -15 10
      vertex -5.16831 -16.8811 0
      vertex -5.16831 -16.8811 10
    endloop
  endfacet
  facet normal 0.866022 -0.500007 0
    outer loop
      vertex 4.21324 -18.5353 10
      vertex 5.16831 -16.8811 0
      vertex 5.16831 -16.8811 10
    endloop
  endfacet
  facet normal 0.866022 -0.500007 0
    outer loop
      vertex 5.16831 -16.8811 0
      vertex 4.21324 -18.5353 10
      vertex 4.21324 -18.5353 0
    endloop
  endfacet
  facet normal -0.642786 -0.766046 0
    outer loop
      vertex -4.21324 -18.5353 0
      vertex -2.75 -19.7631 10
      vertex -4.21324 -18.5353 10
    endloop
  endfacet
  facet normal -0.642786 -0.766046 -0
    outer loop
      vertex -2.75 -19.7631 10
      vertex -4.21324 -18.5353 0
      vertex -2.75 -19.7631 0
    endloop
  endfacet
  facet normal 0.642786 -0.766046 0
    outer loop
      vertex 2.75 -19.7631 0
      vertex 4.21324 -18.5353 10
      vertex 2.75 -19.7631 10
    endloop
  endfacet
  facet normal 0.642786 -0.766046 0
    outer loop
      vertex 4.21324 -18.5353 10
      vertex 2.75 -19.7631 0
      vertex 4.21324 -18.5353 0
    endloop
  endfacet
  facet normal 0.342045 -0.939684 0
    outer loop
      vertex 2.5 -19.8541 0
      vertex 2.75 -19.7631 10
      vertex 2.5 -19.8541 10
    endloop
  endfacet
  facet normal 0.342045 -0.939684 0
    outer loop
      vertex 2.75 -19.7631 10
      vertex 2.5 -19.8541 0
      vertex 2.75 -19.7631 0
    endloop
  endfacet
  facet normal 0.34199 -0.939704 0
    outer loop
      vertex 0.955065 -20.4164 0
      vertex 2.09923 -20 10
      vertex 0.955065 -20.4164 10
    endloop
  endfacet
  facet normal 0.34199 -0.939704 0
    outer loop
      vertex 2.09923 -20 10
      vertex 0.955065 -20.4164 0
      vertex 2.09923 -20 0
    endloop
  endfacet
  facet normal 0 0 -1
    outer loop
      vertex -4.21324 -18.5353 0
      vertex -2.5 -19.8541 0
      vertex -2.75 -19.7631 0
    endloop
  endfacet
  facet normal 0 0 -1
    outer loop
      vertex -5.16831 -16.8811 0
      vertex -2.5 -19.8541 0
      vertex -4.21324 -18.5353 0
    endloop
  endfacet
  facet normal 0 0 -1
    outer loop
      vertex -2.5 -19.8541 0
      vertex -5.16831 -16.8811 0
      vertex -2.5 -10.1459 0
    endloop
  endfacet
  facet normal 0 0 -1
    outer loop
      vertex -2.5 -10.1459 0
      vertex -4.21324 -11.4647 0
      vertex -2.75 -10.2369 0
    endloop
  endfacet
  facet normal 0 0 -1
    outer loop
      vertex -5.16831 -13.1189 0
      vertex -2.5 -10.1459 0
      vertex -5.16831 -16.8811 0
    endloop
  endfacet
  facet normal 0 0 -1
    outer loop
      vertex -2.5 -10.1459 0
      vertex -5.16831 -13.1189 0
      vertex -4.21324 -11.4647 0
    endloop
  endfacet
  facet normal 0 -0 -1
    outer loop
      vertex -5.16831 -13.1189 0
      vertex -5.16831 -16.8811 0
      vertex -5.5 -15 0
    endloop
  endfacet
  facet normal 0 0 -1
    outer loop
      vertex 2.09923 -20 0
      vertex 2.5 -19.8541 0
      vertex 2.5 -20 0
    endloop
  endfacet
  facet normal -0 0 -1
    outer loop
      vertex 2.5 -19.8541 0
      vertex 2.09923 -20 0
      vertex 2.5 -10.1459 0
    endloop
  endfacet
  facet normal -0 0 -1
    outer loop
      vertex 2.5 -10.1459 0
      vertex 2.09923 -20 0
      vertex -2.5 -10.1459 0
    endloop
  endfacet
  facet normal 0 0 -1
    outer loop
      vertex -2.09923 -20 0
      vertex 2.09923 -20 0
      vertex 0.955065 -20.4164 0
    endloop
  endfacet
  facet normal 0 0 -1
    outer loop
      vertex -2.09923 -20 0
      vertex 0.955065 -20.4164 0
      vertex -0.955065 -20.4164 0
    endloop
  endfacet
  facet normal 0 0 -1
    outer loop
      vertex 2.09923 -20 0
      vertex -2.09923 -20 0
      vertex -2.5 -10.1459 0
    endloop
  endfacet
  facet normal 0 0 -1
    outer loop
      vertex -2.5 -19.8541 0
      vertex -2.09923 -20 0
      vertex -2.5 -20 0
    endloop
  endfacet
  facet normal 0 0 -1
    outer loop
      vertex -2.5 -10.1459 0
      vertex -2.09923 -20 0
      vertex -2.5 -19.8541 0
    endloop
  endfacet
  facet normal 0 0 -1
    outer loop
      vertex 2.5 -10.1459 0
      vertex -2.5 -10.1459 0
      vertex 2.5 0 0
    endloop
  endfacet
  facet normal -0 0 -1
    outer loop
      vertex 2.5 0 0
      vertex -2.5 -10.1459 0
      vertex -2.5 0 0
    endloop
  endfacet
  facet normal 0 0 -1
    outer loop
      vertex 5.16831 -16.8811 0
      vertex 5.16831 -13.1189 0
      vertex 5.5 -15 0
    endloop
  endfacet
  facet normal 0 0 -1
    outer loop
      vertex 2.5 -19.8541 0
      vertex 5.16831 -16.8811 0
      vertex 4.21324 -18.5353 0
    endloop
  endfacet
  facet normal -0 0 -1
    outer loop
      vertex 5.16831 -16.8811 0
      vertex 2.5 -19.8541 0
      vertex 5.16831 -13.1189 0
    endloop
  endfacet
  facet normal 0 0 -1
    outer loop
      vertex 2.5 -19.8541 0
      vertex 4.21324 -18.5353 0
      vertex 2.75 -19.7631 0
    endloop
  endfacet
  facet normal 0 0 -1
    outer loop
      vertex 2.5 -10.1459 0
      vertex 5.16831 -13.1189 0
      vertex 2.5 -19.8541 0
    endloop
  endfacet
  facet normal 0 0 -1
    outer loop
      vertex 5.16831 -13.1189 0
      vertex 2.5 -10.1459 0
      vertex 4.21324 -11.4647 0
    endloop
  endfacet
  facet normal 0 0 -1
    outer loop
      vertex 4.21324 -11.4647 0
      vertex 2.5 -10.1459 0
      vertex 2.75 -10.2369 0
    endloop
  endfacet
  facet normal -0.342045 0.939684 0
    outer loop
      vertex -2.5 -10.1459 0
      vertex -2.75 -10.2369 10
      vertex -2.5 -10.1459 10
    endloop
  endfacet
  facet normal -0.342045 0.939684 0
    outer loop
      vertex -2.75 -10.2369 10
      vertex -2.5 -10.1459 0
      vertex -2.75 -10.2369 0
    endloop
  endfacet
  facet normal -0.866022 0.500007 0
    outer loop
      vertex -5.16831 -13.1189 0
      vertex -4.21324 -11.4647 10
      vertex -4.21324 -11.4647 0
    endloop
  endfacet
  facet normal -0.866022 0.500007 0
    outer loop
      vertex -4.21324 -11.4647 10
      vertex -5.16831 -13.1189 0
      vertex -5.16831 -13.1189 10
    endloop
  endfacet
  facet normal 0 -1 0
    outer loop
      vertex -0.955065 -20.4164 0
      vertex 0.955065 -20.4164 10
      vertex -0.955065 -20.4164 10
    endloop
  endfacet
  facet normal 0 -1 -0
    outer loop
      vertex 0.955065 -20.4164 10
      vertex -0.955065 -20.4164 0
      vertex 0.955065 -20.4164 0
    endloop
  endfacet
  facet normal 0 0 1
    outer loop
      vertex -4.21324 -11.4647 10
      vertex -2.5 -10.1459 10
      vertex -2.75 -10.2369 10
    endloop
  endfacet
  facet normal 0 0 1
    outer loop
      vertex -5.16831 -13.1189 10
      vertex -2.5 -10.1459 10
      vertex -4.21324 -11.4647 10
    endloop
  endfacet
  facet normal 0 0 1
    outer loop
      vertex -2.5 -10.1459 10
      vertex -5.16831 -13.1189 10
      vertex -2.5 -19.8541 10
    endloop
  endfacet
  facet normal 0 0 1
    outer loop
      vertex -2.5 -19.8541 10
      vertex -4.21324 -18.5353 10
      vertex -2.75 -19.7631 10
    endloop
  endfacet
  facet normal -0 0 1
    outer loop
      vertex -5.16831 -16.8811 10
      vertex -2.5 -19.8541 10
      vertex -5.16831 -13.1189 10
    endloop
  endfacet
  facet normal 0 0 1
    outer loop
      vertex -2.5 -19.8541 10
      vertex -5.16831 -16.8811 10
      vertex -4.21324 -18.5353 10
    endloop
  endfacet
  facet normal 0 -0 1
    outer loop
      vertex -5.16831 -16.8811 10
      vertex -5.16831 -13.1189 10
      vertex -5.5 -15 10
    endloop
  endfacet
  facet normal 0 0 1
    outer loop
      vertex -2.5 -10.1459 10
      vertex 2.5 -10.1459 10
      vertex 2.5 0 10
    endloop
  endfacet
  facet normal 0 -0 1
    outer loop
      vertex 2.09923 -20 10
      vertex 2.5 -10.1459 10
      vertex -2.5 -10.1459 10
    endloop
  endfacet
  facet normal 0 0 1
    outer loop
      vertex 2.5 -10.1459 10
      vertex 2.09923 -20 10
      vertex 2.5 -19.8541 10
    endloop
  endfacet
  facet normal 0 0 1
    outer loop
      vertex 2.5 -19.8541 10
      vertex 2.09923 -20 10
      vertex 2.5 -20 10
    endloop
  endfacet
  facet normal 0 -0 1
    outer loop
      vertex -2.09923 -20 10
      vertex 2.09923 -20 10
      vertex -2.5 -10.1459 10
    endloop
  endfacet
  facet normal 0 0 1
    outer loop
      vertex 2.09923 -20 10
      vertex -2.09923 -20 10
      vertex 0.955065 -20.4164 10
    endloop
  endfacet
  facet normal 0 0 1
    outer loop
      vertex -2.5 -10.1459 10
      vertex 2.5 0 10
      vertex -2.5 0 10
    endloop
  endfacet
  facet normal 0 0 1
    outer loop
      vertex 0.955065 -20.4164 10
      vertex -2.09923 -20 10
      vertex -0.955065 -20.4164 10
    endloop
  endfacet
  facet normal -0 0 1
    outer loop
      vertex -2.5 -19.8541 10
      vertex -2.09923 -20 10
      vertex -2.5 -10.1459 10
    endloop
  endfacet
  facet normal 0 0 1
    outer loop
      vertex -2.09923 -20 10
      vertex -2.5 -19.8541 10
      vertex -2.5 -20 10
    endloop
  endfacet
  facet normal 0 0 1
    outer loop
      vertex 5.16831 -13.1189 10
      vertex 5.16831 -16.8811 10
      vertex 5.5 -15 10
    endloop
  endfacet
  facet normal 0 0 1
    outer loop
      vertex 2.5 -10.1459 10
      vertex 5.16831 -13.1189 10
      vertex 4.21324 -11.4647 10
    endloop
  endfacet
  facet normal 0 0 1
    outer loop
      vertex 5.16831 -13.1189 10
      vertex 2.5 -10.1459 10
      vertex 5.16831 -16.8811 10
    endloop
  endfacet
  facet normal 0 0 1
    outer loop
      vertex 2.5 -10.1459 10
      vertex 4.21324 -11.4647 10
      vertex 2.75 -10.2369 10
    endloop
  endfacet
  facet normal 0 0 1
    outer loop
      vertex 2.5 -19.8541 10
      vertex 5.16831 -16.8811 10
      vertex 2.5 -10.1459 10
    endloop
  endfacet
  facet normal 0 0 1
    outer loop
      vertex 5.16831 -16.8811 10
      vertex 2.5 -19.8541 10
      vertex 4.21324 -18.5353 10
    endloop
  endfacet
  facet normal 0 0 1
    outer loop
      vertex 4.21324 -18.5353 10
      vertex 2.5 -19.8541 10
      vertex 2.75 -19.7631 10
    endloop
  endfacet
  facet normal -0.866022 -0.500007 0
    outer loop
      vertex -4.21324 -18.5353 0
      vertex -5.16831 -16.8811 10
      vertex -5.16831 -16.8811 0
    endloop
  endfacet
  facet normal -0.866022 -0.500007 0
    outer loop
      vertex -5.16831 -16.8811 10
      vertex -4.21324 -18.5353 0
      vertex -4.21324 -18.5353 10
    endloop
  endfacet
  facet normal 1 -0 0
    outer loop
      vertex 2.5 -10.1459 10
      vertex 2.5 0 0
      vertex 2.5 0 10
    endloop
  endfacet
  facet normal 1 0 0
    outer loop
      vertex 2.5 0 0
      vertex 2.5 -10.1459 10
      vertex 2.5 -10.1459 0
    endloop
  endfacet
  facet normal 1 -0 0
    outer loop
      vertex 2.5 -20 10
      vertex 2.5 -19.8541 0
      vertex 2.5 -19.8541 10
    endloop
  endfacet
  facet normal 1 0 0
    outer loop
      vertex 2.5 -19.8541 0
      vertex 2.5 -20 10
      vertex 2.5 -20 0
    endloop
  endfacet
  facet normal -1 0 0
    outer loop
      vertex -2.5 -10.1459 0
      vertex -2.5 0 10
      vertex -2.5 0 0
    endloop
  endfacet
  facet normal -1 -0 0
    outer loop
      vertex -2.5 0 10
      vertex -2.5 -10.1459 0
      vertex -2.5 -10.1459 10
    endloop
  endfacet
  facet normal -1 0 0
    outer loop
      vertex -2.5 -20 0
      vertex -2.5 -19.8541 10
      vertex -2.5 -19.8541 0
    endloop
  endfacet
  facet normal -1 -0 0
    outer loop
      vertex -2.5 -19.8541 10
      vertex -2.5 -20 0
      vertex -2.5 -20 10
    endloop
  endfacet
  facet normal 0 1 -0
    outer loop
      vertex 2.5 0 0
      vertex -2.5 0 10
      vertex 2.5 0 10
    endloop
  endfacet
  facet normal 0 1 0
    outer loop
      vertex -2.5 0 10
      vertex 2.5 0 0
      vertex -2.5 0 0
    endloop
  endfacet
  facet normal 0 -1 0
    outer loop
      vertex -2.5 -20 0
      vertex -2.09923 -20 10
      vertex -2.5 -20 10
    endloop
  endfacet
  facet normal 0 -1 -0
    outer loop
      vertex -2.09923 -20 10
      vertex -2.5 -20 0
      vertex -2.09923 -20 0
    endloop
  endfacet
  facet normal 0 -1 0
    outer loop
      vertex 2.09923 -20 0
      vertex 2.5 -20 10
      vertex 2.09923 -20 10
    endloop
  endfacet
  facet normal 0 -1 -0
    outer loop
      vertex 2.5 -20 10
      vertex 2.09923 -20 0
      vertex 2.5 -20 0
    endloop
  endfacet
  facet normal 1 -0 0
    outer loop
      vertex 86 0 3.01
      vertex 86 56 0.01
      vertex 86 56 3.01
    endloop
  endfacet
  facet normal 1 0 0
    outer loop
      vertex 86 56 0.01
      vertex 86 0 3.01
      vertex 86 0 0.01
    endloop
  endfacet
  facet normal 0 0 1
    outer loop
      vertex 59 72 3.01
      vertex 54 72 3.01
      vertex 59 56 3.01
    endloop
  endfacet
  facet normal -0 0 1
    outer loop
      vertex 6 29 3.01
      vertex 30 24 3.01
      vertex 30 29 3.01
    endloop
  endfacet
  facet normal 0 0 1
    outer loop
      vertex 30 24 3.01
      vertex 6 29 3.01
      vertex 6 24 3.01
    endloop
  endfacet
  facet normal 0 0 1
    outer loop
      vertex 62 16 3.01
      vertex 46.1 16 3.01
      vertex 62 8 3.01
    endloop
  endfacet
  facet normal 0 0 1
    outer loop
      vertex 78.1 40 3.01
      vertex 70.1 24.1 3.01
      vertex 78.1 16.1 3.01
    endloop
  endfacet
  facet normal -0 0 1
    outer loop
      vertex 70 40 3.01
      vertex 70.1 24.1 3.01
      vertex 78.1 40 3.01
    endloop
  endfacet
  facet normal 0 0 1
    outer loop
      vertex 62.1 32 3.01
      vertex 70 40 3.01
      vertex 62.1 40.1 3.01
    endloop
  endfacet
  facet normal 0 0 1
    outer loop
      vertex 70 40 3.01
      vertex 62.1 32 3.01
      vertex 70.1 24.1 3.01
    endloop
  endfacet
  facet normal 0 0 1
    outer loop
      vertex 54.1 24.1 3.01
      vertex 62.1 32 3.01
      vertex 54.1 32 3.01
    endloop
  endfacet
  facet normal 0 0 1
    outer loop
      vertex 62.1 32 3.01
      vertex 54.1 24.1 3.01
      vertex 70.1 24.1 3.01
    endloop
  endfacet
  facet normal 0 0 1
    outer loop
      vertex 78.1 40 3.01
      vertex 86 56 3.01
      vertex 78.1 48.1 3.01
    endloop
  endfacet
  facet normal 0 0 1
    outer loop
      vertex 86 56 3.01
      vertex 70 48.1 3.01
      vertex 78.1 48.1 3.01
    endloop
  endfacet
  facet normal 0 0 1
    outer loop
      vertex 70 48.1 3.01
      vertex 62.1 40.1 3.01
      vertex 70 40 3.01
    endloop
  endfacet
  facet normal -0 0 1
    outer loop
      vertex 59 56 3.01
      vertex 70 48.1 3.01
      vertex 86 56 3.01
    endloop
  endfacet
  facet normal 0 0 1
    outer loop
      vertex 59 56 3.01
      vertex 62.1 40.1 3.01
      vertex 70 48.1 3.01
    endloop
  endfacet
  facet normal 0 0 1
    outer loop
      vertex 54 56 3.01
      vertex 59 56 3.01
      vertex 54 72 3.01
    endloop
  endfacet
  facet normal 0 0 1
    outer loop
      vertex 54 40.1 3.01
      vertex 59 56 3.01
      vertex 54 56 3.01
    endloop
  endfacet
  facet normal 0 0 1
    outer loop
      vertex 59 56 3.01
      vertex 54 40.1 3.01
      vertex 62.1 40.1 3.01
    endloop
  endfacet
  facet normal 0 0 1
    outer loop
      vertex 46.1 40.1 3.01
      vertex 54 40.1 3.01
      vertex 54 56 3.01
    endloop
  endfacet
  facet normal 0 0 1
    outer loop
      vertex 54 40.1 3.01
      vertex 46.1 40.1 3.01
      vertex 54 32.1 3.01
    endloop
  endfacet
  facet normal 0 0 1
    outer loop
      vertex 54 56 3.01
      vertex 38 40.1 3.01
      vertex 46.1 40.1 3.01
    endloop
  endfacet
  facet normal 0 0 1
    outer loop
      vertex 30 29 3.01
      vertex 38 40.1 3.01
      vertex 30 56 3.01
    endloop
  endfacet
  facet normal -0 0 1
    outer loop
      vertex 30 56 3.01
      vertex 38 40.1 3.01
      vertex 54 56 3.01
    endloop
  endfacet
  facet normal 0 0 1
    outer loop
      vertex 86 56 3.01
      vertex 78.1 40 3.01
      vertex 86 0 3.01
    endloop
  endfacet
  facet normal -0 0 1
    outer loop
      vertex 78.1 16.1 3.01
      vertex 86 0 3.01
      vertex 78.1 40 3.01
    endloop
  endfacet
  facet normal -0 0 1
    outer loop
      vertex 78.1 8 3.01
      vertex 86 0 3.01
      vertex 78.1 16.1 3.01
    endloop
  endfacet
  facet normal -0 0 1
    outer loop
      vertex 62 8 3.01
      vertex 86 0 3.01
      vertex 78.1 8 3.01
    endloop
  endfacet
  facet normal 0 0 1
    outer loop
      vertex 46.1 8 3.01
      vertex 62 8 3.01
      vertex 46.1 16 3.01
    endloop
  endfacet
  facet normal 0 0 1
    outer loop
      vertex 30 0 3.01
      vertex 62 8 3.01
      vertex 46.1 8 3.01
    endloop
  endfacet
  facet normal 0 0 1
    outer loop
      vertex 30 0 3.01
      vertex 46.1 8 3.01
      vertex 38 8 3.01
    endloop
  endfacet
  facet normal 0 0 1
    outer loop
      vertex 30 24 3.01
      vertex 38 40.1 3.01
      vertex 30 29 3.01
    endloop
  endfacet
  facet normal 0 0 1
    outer loop
      vertex 38 40.1 3.01
      vertex 30 24 3.01
      vertex 38 8 3.01
    endloop
  endfacet
  facet normal 0 0 1
    outer loop
      vertex 62 8 3.01
      vertex 30 0 3.01
      vertex 86 0 3.01
    endloop
  endfacet
  facet normal 0 0 1
    outer loop
      vertex 30 0 3.01
      vertex 38 8 3.01
      vertex 30 24 3.01
    endloop
  endfacet
  facet normal 0 0 1
    outer loop
      vertex 78.1 16.1 3.01
      vertex 70.1 24.1 3.01
      vertex 70.1 16.1 3.01
    endloop
  endfacet
  facet normal 0 0 1
    outer loop
      vertex 54 32.1 3.01
      vertex 46.1 40.1 3.01
      vertex 46.1 32.1 3.01
    endloop
  endfacet
  facet normal 0 0 -1
    outer loop
      vertex 70.1 24.1 0.01
      vertex 78.1 16.1 0.01
      vertex 70.1 16.1 0.01
    endloop
  endfacet
  facet normal 0 0 -1
    outer loop
      vertex 78.1 16.1 0.01
      vertex 70.1 24.1 0.01
      vertex 78.1 40 0.01
    endloop
  endfacet
  facet normal 0 0 -1
    outer loop
      vertex 70.1 24.1 0.01
      vertex 70 40 0.01
      vertex 78.1 40 0.01
    endloop
  endfacet
  facet normal 0 0 -1
    outer loop
      vertex 62.1 40.1 0.01
      vertex 70 40 0.01
      vertex 62.1 32 0.01
    endloop
  endfacet
  facet normal 0 0 -1
    outer loop
      vertex 70.1 24.1 0.01
      vertex 62.1 32 0.01
      vertex 70 40 0.01
    endloop
  endfacet
  facet normal 0 0 -1
    outer loop
      vertex 54.1 24.1 0.01
      vertex 62.1 32 0.01
      vertex 70.1 24.1 0.01
    endloop
  endfacet
  facet normal -0 0 -1
    outer loop
      vertex 62.1 32 0.01
      vertex 54.1 24.1 0.01
      vertex 54.1 32 0.01
    endloop
  endfacet
  facet normal 0 0 -1
    outer loop
      vertex 78.1 16.1 0.01
      vertex 86 0 0.01
      vertex 78.1 8 0.01
    endloop
  endfacet
  facet normal 0 0 -1
    outer loop
      vertex 86 0 0.01
      vertex 62 8 0.01
      vertex 78.1 8 0.01
    endloop
  endfacet
  facet normal 0 0 -1
    outer loop
      vertex 62 8 0.01
      vertex 46.1 8 0.01
      vertex 62 16 0.01
    endloop
  endfacet
  facet normal 0 0 -1
    outer loop
      vertex 30 0 0.01
      vertex 62 8 0.01
      vertex 86 0 0.01
    endloop
  endfacet
  facet normal -0 0 -1
    outer loop
      vertex 62 8 0.01
      vertex 30 0 0.01
      vertex 46.1 8 0.01
    endloop
  endfacet
  facet normal 0 0 -1
    outer loop
      vertex 30 24 0.01
      vertex 38 8 0.01
      vertex 30 0 0.01
    endloop
  endfacet
  facet normal -0 0 -1
    outer loop
      vertex 46.1 8 0.01
      vertex 30 0 0.01
      vertex 38 8 0.01
    endloop
  endfacet
  facet normal 0 0 -1
    outer loop
      vertex 86 0 0.01
      vertex 78.1 16.1 0.01
      vertex 86 56 0.01
    endloop
  endfacet
  facet normal 0 0 -1
    outer loop
      vertex 78.1 40 0.01
      vertex 86 56 0.01
      vertex 78.1 16.1 0.01
    endloop
  endfacet
  facet normal 0 0 -1
    outer loop
      vertex 78.1 48.1 0.01
      vertex 86 56 0.01
      vertex 78.1 40 0.01
    endloop
  endfacet
  facet normal 0 0 -1
    outer loop
      vertex 70 48.1 0.01
      vertex 86 56 0.01
      vertex 78.1 48.1 0.01
    endloop
  endfacet
  facet normal 0 0 -1
    outer loop
      vertex 70 40 0.01
      vertex 62.1 40.1 0.01
      vertex 70 48.1 0.01
    endloop
  endfacet
  facet normal 0 0 -1
    outer loop
      vertex 70 48.1 0.01
      vertex 59 56 0.01
      vertex 86 56 0.01
    endloop
  endfacet
  facet normal 0 0 -1
    outer loop
      vertex 62.1 40.1 0.01
      vertex 59 56 0.01
      vertex 70 48.1 0.01
    endloop
  endfacet
  facet normal 0 0 -1
    outer loop
      vertex 54 56 0.01
      vertex 59 56 0.01
      vertex 54 40.1 0.01
    endloop
  endfacet
  facet normal 0 0 -1
    outer loop
      vertex 54 40.1 0.01
      vertex 59 56 0.01
      vertex 62.1 40.1 0.01
    endloop
  endfacet
  facet normal 0 0 -1
    outer loop
      vertex 59 72 0.01
      vertex 62 82 0.01
      vertex 62 72 0.01
    endloop
  endfacet
  facet normal 0 0 -1
    outer loop
      vertex 59 56 0.01
      vertex 54 56 0.01
      vertex 59 72 0.01
    endloop
  endfacet
  facet normal 0 0 -1
    outer loop
      vertex 54 72 0.01
      vertex 59 72 0.01
      vertex 54 56 0.01
    endloop
  endfacet
  facet normal 0 0 -1
    outer loop
      vertex 59 72 0.01
      vertex 54 72 0.01
      vertex 62 82 0.01
    endloop
  endfacet
  facet normal 0 0 -1
    outer loop
      vertex 6 82 0.01
      vertex 54 72 0.01
      vertex 6 72 0.01
    endloop
  endfacet
  facet normal 0 0 -1
    outer loop
      vertex 54 72 0.01
      vertex 6 82 0.01
      vertex 62 82 0.01
    endloop
  endfacet
  facet normal 0 0 -1
    outer loop
      vertex 6 24 0.01
      vertex 30 29 0.01
      vertex 30 24 0.01
    endloop
  endfacet
  facet normal -0 0 -1
    outer loop
      vertex 30 29 0.01
      vertex 6 24 0.01
      vertex 6 29 0.01
    endloop
  endfacet
  facet normal 0 0 -1
    outer loop
      vertex 46.1 40.1 0.01
      vertex 54 40.1 0.01
      vertex 54 32.1 0.01
    endloop
  endfacet
  facet normal 0 0 -1
    outer loop
      vertex 46.1 40.1 0.01
      vertex 54 32.1 0.01
      vertex 46.1 32.1 0.01
    endloop
  endfacet
  facet normal 0 0 -1
    outer loop
      vertex 54 40.1 0.01
      vertex 46.1 40.1 0.01
      vertex 54 56 0.01
    endloop
  endfacet
  facet normal 0 0 -1
    outer loop
      vertex 38 40.1 0.01
      vertex 54 56 0.01
      vertex 46.1 40.1 0.01
    endloop
  endfacet
  facet normal 0 0 -1
    outer loop
      vertex 38 8 0.01
      vertex 30 24 0.01
      vertex 38 40.1 0.01
    endloop
  endfacet
  facet normal 0 0 -1
    outer loop
      vertex 30 29 0.01
      vertex 38 40.1 0.01
      vertex 30 24 0.01
    endloop
  endfacet
  facet normal 0 0 -1
    outer loop
      vertex 38 40.1 0.01
      vertex 30 56 0.01
      vertex 54 56 0.01
    endloop
  endfacet
  facet normal 0 0 -1
    outer loop
      vertex 30 56 0.01
      vertex 38 40.1 0.01
      vertex 30 29 0.01
    endloop
  endfacet
  facet normal -0 0 -1
    outer loop
      vertex 62 16 0.01
      vertex 46.1 8 0.01
      vertex 46.1 16 0.01
    endloop
  endfacet
  facet normal -1 0 0
    outer loop
      vertex 30 29 0.01
      vertex 30 56 3.01
      vertex 30 56 0.01
    endloop
  endfacet
  facet normal -1 -0 0
    outer loop
      vertex 30 56 3.01
      vertex 30 29 0.01
      vertex 30 29 3.01
    endloop
  endfacet
  facet normal -1 0 0
    outer loop
      vertex 30 0 0.01
      vertex 30 24 3.01
      vertex 30 24 0.01
    endloop
  endfacet
  facet normal -1 -0 0
    outer loop
      vertex 30 24 3.01
      vertex 30 0 0.01
      vertex 30 0 3.01
    endloop
  endfacet
  facet normal 0 1 -0
    outer loop
      vertex 54 56 0.01
      vertex 30 56 3.01
      vertex 54 56 3.01
    endloop
  endfacet
  facet normal 0 1 0
    outer loop
      vertex 30 56 3.01
      vertex 54 56 0.01
      vertex 30 56 0.01
    endloop
  endfacet
  facet normal 0 1 -0
    outer loop
      vertex 86 56 0.01
      vertex 59 56 3.01
      vertex 86 56 3.01
    endloop
  endfacet
  facet normal 0 1 0
    outer loop
      vertex 59 56 3.01
      vertex 86 56 0.01
      vertex 59 56 0.01
    endloop
  endfacet
  facet normal 0 -1 0
    outer loop
      vertex 30 0 0.01
      vertex 86 0 3.01
      vertex 30 0 3.01
    endloop
  endfacet
  facet normal 0 -1 -0
    outer loop
      vertex 86 0 3.01
      vertex 30 0 0.01
      vertex 86 0 0.01
    endloop
  endfacet
  facet normal -1 0 0
    outer loop
      vertex 6 24 0.01
      vertex 6 29 3.01
      vertex 6 29 0.01
    endloop
  endfacet
  facet normal -1 -0 0
    outer loop
      vertex 6 29 3.01
      vertex 6 24 0.01
      vertex 6 24 3.01
    endloop
  endfacet
  facet normal 0 1 -0
    outer loop
      vertex 30 29 0.01
      vertex 6 29 3.01
      vertex 30 29 3.01
    endloop
  endfacet
  facet normal 0 1 0
    outer loop
      vertex 6 29 3.01
      vertex 30 29 0.01
      vertex 6 29 0.01
    endloop
  endfacet
  facet normal 0 -1 0
    outer loop
      vertex 6 24 0.01
      vertex 30 24 3.01
      vertex 6 24 3.01
    endloop
  endfacet
  facet normal 0 -1 -0
    outer loop
      vertex 30 24 3.01
      vertex 6 24 0.01
      vertex 30 24 0.01
    endloop
  endfacet
  facet normal 1 -0 0
    outer loop
      vertex 62 72 5.01
      vertex 62 82 0.01
      vertex 62 82 5.01
    endloop
  endfacet
  facet normal 1 0 0
    outer loop
      vertex 62 82 0.01
      vertex 62 72 5.01
      vertex 62 72 0.01
    endloop
  endfacet
  facet normal -0 0 1
    outer loop
      vertex 6 82 5.01
      vertex 62 72 5.01
      vertex 62 82 5.01
    endloop
  endfacet
  facet normal 0 0 1
    outer loop
      vertex 62 72 5.01
      vertex 6 82 5.01
      vertex 6 72 5.01
    endloop
  endfacet
  facet normal -1 0 0
    outer loop
      vertex 6 72 0.01
      vertex 6 82 5.01
      vertex 6 82 0.01
    endloop
  endfacet
  facet normal -1 -0 0
    outer loop
      vertex 6 82 5.01
      vertex 6 72 0.01
      vertex 6 72 5.01
    endloop
  endfacet
  facet normal 0 1 -0
    outer loop
      vertex 62 82 0.01
      vertex 6 82 5.01
      vertex 62 82 5.01
    endloop
  endfacet
  facet normal 0 1 0
    outer loop
      vertex 6 82 5.01
      vertex 62 82 0.01
      vertex 6 82 0.01
    endloop
  endfacet
  facet normal 0 -1 0
    outer loop
      vertex 6 72 5.01
      vertex 54 72 3.01
      vertex 62 72 5.01
    endloop
  endfacet
  facet normal 0 -1 0
    outer loop
      vertex 6 72 0.01
      vertex 54 72 3.01
      vertex 6 72 5.01
    endloop
  endfacet
  facet normal 0 -1 -0
    outer loop
      vertex 54 72 3.01
      vertex 6 72 0.01
      vertex 54 72 0.01
    endloop
  endfacet
  facet normal 0 -1 0
    outer loop
      vertex 59 72 3.01
      vertex 62 72 5.01
      vertex 54 72 3.01
    endloop
  endfacet
  facet normal 0 -1 0
    outer loop
      vertex 62 72 0.01
      vertex 59 72 3.01
      vertex 59 72 0.01
    endloop
  endfacet
  facet normal 0 -1 0
    outer loop
      vertex 59 72 3.01
      vertex 62 72 0.01
      vertex 62 72 5.01
    endloop
  endfacet
  facet normal 1 -0 0
    outer loop
      vertex 59 56 3.01
      vertex 59 72 0.01
      vertex 59 72 3.01
    endloop
  endfacet
  facet normal 1 0 0
    outer loop
      vertex 59 72 0.01
      vertex 59 56 3.01
      vertex 59 56 0.01
    endloop
  endfacet
  facet normal -1 0 0
    outer loop
      vertex 54 56 0.01
      vertex 54 72 3.01
      vertex 54 72 0.01
    endloop
  endfacet
  facet normal -1 -0 0
    outer loop
      vertex 54 72 3.01
      vertex 54 56 0.01
      vertex 54 56 3.01
    endloop
  endfacet
  facet normal -1 0 0
    outer loop
      vertex 46.1 8 0.01
      vertex 46.1 16 3.01
      vertex 46.1 16 0.01
    endloop
  endfacet
  facet normal -1 -0 0
    outer loop
      vertex 46.1 16 3.01
      vertex 46.1 8 0.01
      vertex 46.1 8 3.01
    endloop
  endfacet
  facet normal -1 0 0
    outer loop
      vertex 46.1 32.1 0.01
      vertex 46.1 40.1 3.01
      vertex 46.1 40.1 0.01
    endloop
  endfacet
  facet normal -1 -0 0
    outer loop
      vertex 46.1 40.1 3.01
      vertex 46.1 32.1 0.01
      vertex 46.1 32.1 3.01
    endloop
  endfacet
  facet normal 1 -0 0
    outer loop
      vertex 38 8 3.01
      vertex 38 40.1 0.01
      vertex 38 40.1 3.01
    endloop
  endfacet
  facet normal 1 0 0
    outer loop
      vertex 38 40.1 0.01
      vertex 38 8 3.01
      vertex 38 8 0.01
    endloop
  endfacet
  facet normal 0 1 -0
    outer loop
      vertex 46.1 8 0.01
      vertex 38 8 3.01
      vertex 46.1 8 3.01
    endloop
  endfacet
  facet normal 0 1 0
    outer loop
      vertex 38 8 3.01
      vertex 46.1 8 0.01
      vertex 38 8 0.01
    endloop
  endfacet
  facet normal 0 -1 0
    outer loop
      vertex 38 40.1 0.01
      vertex 46.1 40.1 3.01
      vertex 38 40.1 3.01
    endloop
  endfacet
  facet normal 0 -1 -0
    outer loop
      vertex 46.1 40.1 3.01
      vertex 38 40.1 0.01
      vertex 46.1 40.1 0.01
    endloop
  endfacet
  facet normal -1 0 0
    outer loop
      vertex 54.1 24.1 0.01
      vertex 54.1 32 3.01
      vertex 54.1 32 0.01
    endloop
  endfacet
  facet normal -1 -0 0
    outer loop
      vertex 54.1 32 3.01
      vertex 54.1 24.1 0.01
      vertex 54.1 24.1 3.01
    endloop
  endfacet
  facet normal 0 1 -0
    outer loop
      vertex 62 16 0.01
      vertex 46.1 16 3.01
      vertex 62 16 3.01
    endloop
  endfacet
  facet normal 0 1 0
    outer loop
      vertex 46.1 16 3.01
      vertex 62 16 0.01
      vertex 46.1 16 0.01
    endloop
  endfacet
  facet normal 0 -1 0
    outer loop
      vertex 46.1 32.1 0.01
      vertex 54 32.1 3.01
      vertex 46.1 32.1 3.01
    endloop
  endfacet
  facet normal 0 -1 -0
    outer loop
      vertex 54 32.1 3.01
      vertex 46.1 32.1 0.01
      vertex 54 32.1 0.01
    endloop
  endfacet
  facet normal 0 -1 0
    outer loop
      vertex 54.1 24.1 0.01
      vertex 70.1 24.1 3.01
      vertex 54.1 24.1 3.01
    endloop
  endfacet
  facet normal 0 -1 -0
    outer loop
      vertex 70.1 24.1 3.01
      vertex 54.1 24.1 0.01
      vertex 70.1 24.1 0.01
    endloop
  endfacet
  facet normal -1 0 0
    outer loop
      vertex 62.1 32 0.01
      vertex 62.1 40.1 3.01
      vertex 62.1 40.1 0.01
    endloop
  endfacet
  facet normal -1 -0 0
    outer loop
      vertex 62.1 40.1 3.01
      vertex 62.1 32 0.01
      vertex 62.1 32 3.01
    endloop
  endfacet
  facet normal 1 -0 0
    outer loop
      vertex 54 32.1 3.01
      vertex 54 40.1 0.01
      vertex 54 40.1 3.01
    endloop
  endfacet
  facet normal 1 0 0
    outer loop
      vertex 54 40.1 0.01
      vertex 54 32.1 3.01
      vertex 54 32.1 0.01
    endloop
  endfacet
  facet normal 0 -1 0
    outer loop
      vertex 54 40.1 0.01
      vertex 62.1 40.1 3.01
      vertex 54 40.1 3.01
    endloop
  endfacet
  facet normal 0 -1 -0
    outer loop
      vertex 62.1 40.1 3.01
      vertex 54 40.1 0.01
      vertex 62.1 40.1 0.01
    endloop
  endfacet
  facet normal 0 1 -0
    outer loop
      vertex 62.1 32 0.01
      vertex 54.1 32 3.01
      vertex 62.1 32 3.01
    endloop
  endfacet
  facet normal 0 1 0
    outer loop
      vertex 54.1 32 3.01
      vertex 62.1 32 0.01
      vertex 54.1 32 0.01
    endloop
  endfacet
  facet normal -1 0 0
    outer loop
      vertex 70.1 16.1 0.01
      vertex 70.1 24.1 3.01
      vertex 70.1 24.1 0.01
    endloop
  endfacet
  facet normal -1 -0 0
    outer loop
      vertex 70.1 24.1 3.01
      vertex 70.1 16.1 0.01
      vertex 70.1 16.1 3.01
    endloop
  endfacet
  facet normal 1 -0 0
    outer loop
      vertex 62 8 3.01
      vertex 62 16 0.01
      vertex 62 16 3.01
    endloop
  endfacet
  facet normal 1 0 0
    outer loop
      vertex 62 16 0.01
      vertex 62 8 3.01
      vertex 62 8 0.01
    endloop
  endfacet
  facet normal 0 1 -0
    outer loop
      vertex 78.1 8 0.01
      vertex 62 8 3.01
      vertex 78.1 8 3.01
    endloop
  endfacet
  facet normal 0 1 0
    outer loop
      vertex 62 8 3.01
      vertex 78.1 8 0.01
      vertex 62 8 0.01
    endloop
  endfacet
  facet normal -1 0 0
    outer loop
      vertex 78.1 8 0.01
      vertex 78.1 16.1 3.01
      vertex 78.1 16.1 0.01
    endloop
  endfacet
  facet normal -1 -0 0
    outer loop
      vertex 78.1 16.1 3.01
      vertex 78.1 8 0.01
      vertex 78.1 8 3.01
    endloop
  endfacet
  facet normal 0 -1 0
    outer loop
      vertex 70.1 16.1 0.01
      vertex 78.1 16.1 3.01
      vertex 70.1 16.1 3.01
    endloop
  endfacet
  facet normal 0 -1 -0
    outer loop
      vertex 78.1 16.1 3.01
      vertex 70.1 16.1 0.01
      vertex 78.1 16.1 0.01
    endloop
  endfacet
  facet normal -1 0 0
    outer loop
      vertex 78.1 40 0.01
      vertex 78.1 48.1 3.01
      vertex 78.1 48.1 0.01
    endloop
  endfacet
  facet normal -1 -0 0
    outer loop
      vertex 78.1 48.1 3.01
      vertex 78.1 40 0.01
      vertex 78.1 40 3.01
    endloop
  endfacet
  facet normal 1 -0 0
    outer loop
      vertex 70 40 3.01
      vertex 70 48.1 0.01
      vertex 70 48.1 3.01
    endloop
  endfacet
  facet normal 1 0 0
    outer loop
      vertex 70 48.1 0.01
      vertex 70 40 3.01
      vertex 70 40 0.01
    endloop
  endfacet
  facet normal 0 -1 0
    outer loop
      vertex 70 48.1 0.01
      vertex 78.1 48.1 3.01
      vertex 70 48.1 3.01
    endloop
  endfacet
  facet normal 0 -1 -0
    outer loop
      vertex 78.1 48.1 3.01
      vertex 70 48.1 0.01
      vertex 78.1 48.1 0.01
    endloop
  endfacet
  facet normal 0 1 -0
    outer loop
      vertex 78.1 40 0.01
      vertex 70 40 3.01
      vertex 78.1 40 3.01
    endloop
  endfacet
  facet normal 0 1 0
    outer loop
      vertex 70 40 3.01
      vertex 78.1 40 0.01
      vertex 70 40 0.01
    endloop
  endfacet
endsolid OpenSCAD_Model
